<svg width="97" height="97" viewBox="0 0 97 97" fill="none" xmlns="http://www.w3.org/2000/svg">
<path d="M52.777 41.2428L55.8768 41.2262C57.8433 39.1669 60.2173 36.7181 63.3199 36.8998C66.4345 36.7323 68.7965 39.1383 70.7635 41.2262C72.0796 41.2768 74.6204 41.0813 75.8524 41.5411V21.8145H21.1477V53.311H43.8085L45.3505 51.7527L45.3837 48.6528C45.4017 46.696 46.186 44.8242 47.5681 43.4389C48.9503 42.0537 50.8203 41.2653 52.777 41.2428ZM31.9229 34.3301C28.6637 34.2811 28.6455 29.4098 31.9229 29.3569H65.0771C68.3323 29.4146 68.3513 34.2686 65.0771 34.3301H31.9229Z" fill="#E5E1DA"/>
<path d="M85.7986 9.3816H11.2014C10.5442 9.37974 9.9132 9.63885 9.44695 10.102C8.9807 10.5651 8.71738 11.1944 8.71484 11.8516V63.2573C8.71676 63.9162 8.97935 64.5476 9.44526 65.0135C9.91117 65.4794 10.5425 65.742 11.2014 65.7439H44.4719C42.2685 63.7962 40.6388 61.2435 41.1066 58.2842H18.6611C18.0022 58.2823 17.3709 58.0197 16.905 57.5538C16.4391 57.0879 16.1765 56.4565 16.1746 55.7976V19.3279C16.1741 19.0012 16.2381 18.6777 16.3629 18.3758C16.4877 18.0739 16.6708 17.7996 16.9018 17.5686C17.1328 17.3376 17.4071 17.1545 17.709 17.0297C18.0109 16.9049 18.3345 16.8409 18.6611 16.8413H78.3389C78.9978 16.8432 79.6291 17.1058 80.095 17.5717C80.561 18.0376 80.8235 18.669 80.8254 19.3279V46.1994C81.456 47.6029 81.2455 50.2231 81.2896 51.7527L83.4779 53.9574C86.975 57.6464 85.9143 62.6924 82.1682 65.7439H85.7985C86.4566 65.7392 87.0863 65.4757 87.5516 65.0104C88.0169 64.5451 88.2804 63.9154 88.2852 63.2573V11.8516C88.2798 11.1953 88.0156 10.5676 87.5499 10.1051C87.0843 9.64257 86.4549 9.38256 85.7986 9.3816Z" fill="#E5E1DA"/>
<path d="M77.6262 77.1156L70.7634 77.1654L67.5969 80.2819L70.0632 87.0712C70.1192 87.2253 70.2196 87.3593 70.3517 87.4562C70.4839 87.5532 70.6418 87.6089 70.8055 87.6161C70.9693 87.6233 71.1315 87.5818 71.2717 87.4969C71.4119 87.4119 71.5237 87.2873 71.593 87.1388L73.8963 82.2049L78.8107 84.5049C78.9592 84.5743 79.125 84.5982 79.2871 84.5734C79.4492 84.5486 79.6003 84.4763 79.7213 84.3656C79.8423 84.2549 79.9277 84.1108 79.9668 83.9515C80.0058 83.7922 79.9967 83.6249 79.9407 83.4708L77.6262 77.1156Z" fill="#E5E1DA"/>
<path d="M49.0306 77.1156L46.716 83.4709C46.66 83.625 46.6509 83.7922 46.6899 83.9515C46.729 84.1108 46.8144 84.2549 46.9353 84.3656C47.0563 84.4763 47.2074 84.5486 47.3695 84.5734C47.5316 84.5982 47.6974 84.5744 47.846 84.5049L52.7604 82.2049L55.0646 87.1404C55.1338 87.2889 55.2456 87.4135 55.3856 87.4984C55.5257 87.5834 55.6878 87.6249 55.8515 87.6177C56.0152 87.6105 56.173 87.5549 56.3051 87.458C56.4372 87.3611 56.5376 87.2272 56.5936 87.0732L59.0599 80.2985L55.8768 77.1654L49.0306 77.1156Z" fill="#E5E1DA"/>
<path d="M76.3363 53.804L76.2991 48.6819C76.2943 48.0302 76.0332 47.4065 75.5723 46.9456C75.1115 46.4847 74.4878 46.2237 73.836 46.2188L68.7139 46.1816L65.067 42.5871C64.6027 42.1296 63.9771 41.873 63.3253 41.873C62.6735 41.873 62.0478 42.1296 61.5836 42.5871L57.9371 46.1816L52.815 46.2188C52.1632 46.2234 51.5394 46.4844 51.0785 46.9453C50.6176 47.4062 50.3566 48.0299 50.3519 48.6817L50.3143 53.804L46.72 57.4505C46.2623 57.9147 46.0058 58.5404 46.0058 59.1923C46.0058 59.8441 46.2623 60.4698 46.72 60.9341L50.3143 64.5808L50.3516 69.7029C50.3564 70.3547 50.6175 70.9784 51.0783 71.4393C51.5392 71.9001 52.1629 72.1612 52.8147 72.166L57.9367 72.2033L61.5837 75.7977C62.0479 76.2553 62.6736 76.5118 63.3254 76.5118C63.9772 76.5118 64.6029 76.2553 65.0671 75.7977L68.7136 72.2033L73.8357 72.166C74.4874 72.1613 75.1111 71.9003 75.572 71.4394C76.0329 70.9786 76.294 70.3549 76.2988 69.7031L76.3363 64.5808L79.9306 60.9342C80.3883 60.47 80.6448 59.8443 80.6448 59.1925C80.6448 58.5406 80.3883 57.915 79.9306 57.4508L76.3363 53.804ZM63.3256 65.8232C54.561 65.5529 54.5626 52.8307 63.3256 52.5615C72.0901 52.8323 72.088 65.5539 63.3256 65.8232Z" fill="#E5E1DA"/>
</svg>
