<svg width="647" height="647" viewBox="0 0 647 647" fill="none" xmlns="http://www.w3.org/2000/svg">
<path d="M579.316 474.159H67.6835C60.7055 474.159 55.0468 468.5 55.0468 461.522V123.502C55.0468 116.524 60.7055 110.866 67.6835 110.866H579.318C586.296 110.866 591.954 116.524 591.954 123.502V461.521C591.953 468.5 586.296 474.159 579.316 474.159ZM80.3202 448.885H566.681V136.139H80.3202V448.885Z" fill="#444B54"/>
<path d="M579.316 474.159H67.6835C60.7055 474.159 55.0468 468.5 55.0468 461.522V400.621C55.0468 393.643 60.7055 387.984 67.6835 387.984H579.318C586.296 387.984 591.954 393.643 591.954 400.621V461.522C591.953 468.5 586.296 474.159 579.316 474.159ZM80.3202 448.885H566.681V413.257H80.3202V448.885Z" fill="#444B54"/>
<path d="M361.911 536.134H285.088C278.11 536.134 272.451 530.476 272.451 523.498V461.522C272.451 454.544 278.11 448.885 285.088 448.885H361.911C368.889 448.885 374.547 454.544 374.547 461.522V523.498C374.547 530.476 368.89 536.134 361.911 536.134ZM297.726 510.861H349.275V474.159H297.726V510.861Z" fill="#444B54"/>
<path d="M403.906 536.134H243.094C236.116 536.134 230.457 530.476 230.457 523.498C230.457 516.52 236.116 510.861 243.094 510.861H403.906C410.884 510.861 416.543 516.52 416.543 523.498C416.543 530.476 410.884 536.134 403.906 536.134Z" fill="#444B54"/>
<path d="M304.316 309.145C300.993 309.145 297.732 307.793 295.383 305.442C293.033 303.092 291.68 299.831 291.68 296.508C291.68 293.185 293.032 289.924 295.383 287.574C297.732 285.225 300.993 283.871 304.316 283.871C307.641 283.871 310.901 285.223 313.25 287.574C315.601 289.924 316.953 293.185 316.953 296.508C316.953 299.831 315.602 303.092 313.25 305.442C310.901 307.791 307.641 309.145 304.316 309.145Z" fill="#444B54"/>
<path d="M342.277 309.145C338.953 309.145 335.693 307.793 333.344 305.442C330.994 303.092 329.64 299.831 329.64 296.508C329.64 293.185 330.992 289.924 333.344 287.574C335.693 285.225 338.953 283.871 342.277 283.871C345.602 283.871 348.861 285.223 351.211 287.574C353.561 289.924 354.914 293.185 354.914 296.508C354.914 299.845 353.563 303.092 351.211 305.442C348.861 307.791 345.602 309.145 342.277 309.145Z" fill="#444B54"/>
<path d="M343.349 359.673H304.315C297.337 359.673 291.678 354.014 291.678 347.036C291.678 329.305 306.101 314.88 323.829 314.88C341.559 314.88 355.984 329.305 355.984 347.036C355.985 354.014 350.327 359.673 343.349 359.673Z" fill="#444B54"/>
<path d="M138.132 309.145C134.809 309.145 131.548 307.793 129.199 305.442C126.849 303.092 125.495 299.831 125.495 296.508C125.495 293.185 126.847 289.924 129.199 287.574C131.548 285.225 134.809 283.871 138.132 283.871C141.455 283.871 144.716 285.223 147.066 287.574C149.417 289.924 150.769 293.185 150.769 296.508C150.769 299.831 149.418 303.092 147.066 305.442C144.716 307.791 141.454 309.145 138.132 309.145Z" fill="#444B54"/>
<path d="M176.104 309.145C172.768 309.145 169.508 307.793 167.159 305.442C164.808 303.092 163.455 299.831 163.455 296.508C163.455 293.185 164.807 289.924 167.159 287.574C169.508 285.225 172.768 283.871 176.104 283.871C179.429 283.871 182.675 285.223 185.027 287.574C187.39 289.924 188.729 293.185 188.729 296.508C188.729 299.831 187.39 303.092 185.027 305.442C182.676 307.791 179.429 309.145 176.104 309.145Z" fill="#444B54"/>
<path d="M159.598 364.228C142.451 364.228 128.5 350.28 128.5 333.134C128.5 326.156 134.159 320.497 141.137 320.497H178.055C185.033 320.497 190.692 326.156 190.692 333.134C190.691 350.28 176.742 364.228 159.598 364.228Z" fill="#444B54"/>
<path d="M462.719 312.05C459.395 312.05 456.135 310.71 453.785 308.347C451.435 305.997 450.082 302.749 450.082 299.413C450.082 296.09 451.434 292.829 453.785 290.48C456.135 288.13 459.395 286.776 462.719 286.776C466.042 286.776 469.302 288.129 471.653 290.48C474.002 292.829 475.355 296.09 475.355 299.413C475.355 302.751 474.003 305.997 471.653 308.347C469.302 310.712 466.042 312.05 462.719 312.05Z" fill="#444B54"/>
<path d="M508.678 312.05C505.355 312.05 502.095 310.71 499.744 308.347C497.394 305.997 496.042 302.749 496.042 299.413C496.042 296.09 497.393 292.829 499.744 290.48C502.095 288.13 505.342 286.776 508.678 286.776C512.002 286.776 515.262 288.129 517.611 290.48C519.962 292.829 521.315 296.09 521.315 299.413C521.315 302.751 519.963 305.997 517.611 308.347C515.262 310.712 512.002 312.05 508.678 312.05Z" fill="#444B54"/>
<path d="M515.114 356.329H457.389C450.411 356.329 444.752 350.67 444.752 343.692V334.301C444.752 327.323 450.411 321.664 457.389 321.664H515.114C522.092 321.664 527.751 327.323 527.751 334.301V343.692C527.751 350.67 522.092 356.329 515.114 356.329Z" fill="#444B54"/>
<path d="M182.64 271.628H138.132C131.154 271.628 125.495 265.969 125.495 258.991V165.137C125.495 158.159 131.154 152.5 138.132 152.5H182.64C189.618 152.5 195.276 158.159 195.276 165.137V258.991C195.276 265.97 189.619 271.628 182.64 271.628ZM150.77 246.354H170.004V177.773H150.77V246.354Z" fill="#444B54"/>
<path d="M346.086 271.628H301.578C294.6 271.628 288.941 265.969 288.941 258.991V194.341C288.941 187.363 294.6 181.705 301.578 181.705H346.086C353.064 181.705 358.722 187.363 358.722 194.341V258.991C358.722 265.97 353.065 271.628 346.086 271.628ZM314.215 246.354H333.449V206.978H314.215V246.354Z" fill="#444B54"/>
<path d="M508.504 271.628H463.996C457.018 271.628 451.36 265.969 451.36 258.991V218.568C451.36 211.59 457.018 205.932 463.996 205.932H508.504C515.482 205.932 521.141 211.59 521.141 218.568V258.991C521.141 265.97 515.483 271.628 508.504 271.628ZM476.634 246.354H495.869V231.205H476.634V246.354Z" fill="#444B54"/>
<path d="M579.318 123.502H67.6835V461.521H579.318V123.502Z" fill="#D9DCE1"/>
<path d="M579.316 474.159H67.6835C60.7055 474.159 55.0468 468.5 55.0468 461.522V123.502C55.0468 116.524 60.7055 110.866 67.6835 110.866H579.318C586.296 110.866 591.954 116.524 591.954 123.502V461.521C591.953 468.5 586.296 474.159 579.316 474.159ZM80.3202 448.885H566.681V136.139H80.3202V448.885Z" fill="#444B54"/>
<path d="M579.318 400.619H67.6835V461.521H579.318V400.619Z" fill="#65A0D6"/>
<path d="M579.316 474.159H67.6835C60.7055 474.159 55.0468 468.5 55.0468 461.522V400.621C55.0468 393.643 60.7055 387.984 67.6835 387.984H579.318C586.296 387.984 591.954 393.643 591.954 400.621V461.522C591.953 468.5 586.296 474.159 579.316 474.159ZM80.3202 448.885H566.681V413.257H80.3202V448.885Z" fill="#444B54"/>
<path d="M361.911 536.134H285.088C278.11 536.134 272.451 530.476 272.451 523.498V461.522C272.451 454.544 278.11 448.885 285.088 448.885H361.911C368.889 448.885 374.547 454.544 374.547 461.522V523.498C374.547 530.476 368.89 536.134 361.911 536.134ZM297.726 510.861H349.275V474.159H297.726V510.861Z" fill="#444B54"/>
<path d="M403.906 536.134H243.094C236.116 536.134 230.457 530.476 230.457 523.498C230.457 516.52 236.116 510.861 243.094 510.861H403.906C410.884 510.861 416.543 516.52 416.543 523.498C416.543 530.476 410.884 536.134 403.906 536.134Z" fill="#444B54"/>
<path d="M304.316 309.145C300.993 309.145 297.732 307.793 295.383 305.442C293.033 303.092 291.68 299.831 291.68 296.508C291.68 293.185 293.032 289.924 295.383 287.574C297.732 285.225 300.993 283.871 304.316 283.871C307.641 283.871 310.901 285.223 313.25 287.574C315.601 289.924 316.953 293.185 316.953 296.508C316.953 299.831 315.602 303.092 313.25 305.442C310.901 307.791 307.641 309.145 304.316 309.145Z" fill="#444B54"/>
<path d="M342.277 309.145C338.953 309.145 335.693 307.793 333.344 305.442C330.994 303.092 329.64 299.831 329.64 296.508C329.64 293.185 330.992 289.924 333.344 287.574C335.693 285.225 338.953 283.871 342.277 283.871C345.602 283.871 348.861 285.223 351.211 287.574C353.561 289.924 354.914 293.185 354.914 296.508C354.914 299.845 353.563 303.092 351.211 305.442C348.861 307.791 345.602 309.145 342.277 309.145Z" fill="#444B54"/>
<path d="M343.349 359.673H304.315C297.337 359.673 291.678 354.014 291.678 347.036C291.678 329.305 306.101 314.88 323.829 314.88C341.559 314.88 355.984 329.305 355.984 347.036C355.985 354.014 350.327 359.673 343.349 359.673Z" fill="#444B54"/>
<path d="M138.132 309.145C134.809 309.145 131.548 307.793 129.199 305.442C126.849 303.092 125.495 299.831 125.495 296.508C125.495 293.185 126.847 289.924 129.199 287.574C131.548 285.225 134.809 283.871 138.132 283.871C141.455 283.871 144.716 285.223 147.066 287.574C149.417 289.924 150.769 293.185 150.769 296.508C150.769 299.831 149.418 303.092 147.066 305.442C144.716 307.791 141.454 309.145 138.132 309.145Z" fill="#444B54"/>
<path d="M176.104 309.145C172.768 309.145 169.508 307.793 167.159 305.442C164.808 303.092 163.455 299.831 163.455 296.508C163.455 293.185 164.807 289.924 167.159 287.574C169.508 285.225 172.768 283.871 176.104 283.871C179.429 283.871 182.675 285.223 185.027 287.574C187.39 289.924 188.729 293.185 188.729 296.508C188.729 299.831 187.39 303.092 185.027 305.442C182.676 307.791 179.429 309.145 176.104 309.145Z" fill="#444B54"/>
<path d="M159.598 364.228C142.451 364.228 128.5 350.28 128.5 333.134C128.5 326.156 134.159 320.497 141.137 320.497H178.055C185.033 320.497 190.692 326.156 190.692 333.134C190.691 350.28 176.742 364.228 159.598 364.228Z" fill="#444B54"/>
<path d="M462.719 312.05C459.395 312.05 456.135 310.71 453.785 308.347C451.435 305.997 450.082 302.749 450.082 299.413C450.082 296.09 451.434 292.829 453.785 290.48C456.135 288.13 459.395 286.776 462.719 286.776C466.042 286.776 469.302 288.129 471.653 290.48C474.002 292.829 475.355 296.09 475.355 299.413C475.355 302.751 474.003 305.997 471.653 308.347C469.302 310.712 466.042 312.05 462.719 312.05Z" fill="#444B54"/>
<path d="M508.678 312.05C505.355 312.05 502.095 310.71 499.744 308.347C497.394 305.997 496.042 302.749 496.042 299.413C496.042 296.09 497.393 292.829 499.744 290.48C502.095 288.13 505.342 286.776 508.678 286.776C512.002 286.776 515.262 288.129 517.611 290.48C519.962 292.829 521.315 296.09 521.315 299.413C521.315 302.751 519.963 305.997 517.611 308.347C515.262 310.712 512.002 312.05 508.678 312.05Z" fill="#444B54"/>
<path d="M515.114 356.329H457.389C450.411 356.329 444.752 350.67 444.752 343.692V334.301C444.752 327.323 450.411 321.664 457.389 321.664H515.114C522.092 321.664 527.751 327.323 527.751 334.301V343.692C527.751 350.67 522.092 356.329 515.114 356.329Z" fill="#444B54"/>
<path d="M182.641 165.138H138.133V258.992H182.641V165.138Z" fill="#3C74BA"/>
<path d="M182.64 271.628H138.132C131.154 271.628 125.495 265.969 125.495 258.991V165.137C125.495 158.159 131.154 152.5 138.132 152.5H182.64C189.618 152.5 195.276 158.159 195.276 165.137V258.991C195.276 265.97 189.619 271.628 182.64 271.628ZM150.77 246.354H170.004V177.773H150.77V246.354Z" fill="#444B54"/>
<path d="M346.086 194.341H301.578V258.991H346.086V194.341Z" fill="#3C74BA"/>
<path d="M346.086 271.628H301.578C294.6 271.628 288.941 265.969 288.941 258.991V194.341C288.941 187.363 294.6 181.705 301.578 181.705H346.086C353.064 181.705 358.722 187.363 358.722 194.341V258.991C358.722 265.97 353.065 271.628 346.086 271.628ZM314.215 246.354H333.449V206.978H314.215V246.354Z" fill="#444B54"/>
<path d="M508.505 218.568H463.998V258.991H508.505V218.568Z" fill="#3C74BA"/>
<path d="M508.504 271.628H463.996C457.018 271.628 451.36 265.969 451.36 258.991V218.568C451.36 211.59 457.018 205.932 463.996 205.932H508.504C515.482 205.932 521.141 211.59 521.141 218.568V258.991C521.141 265.97 515.483 271.628 508.504 271.628ZM476.634 246.354H495.869V231.205H476.634V246.354Z" fill="#444B54"/>
</svg>
