<svg width="69" height="69" viewBox="0 0 69 69" fill="none" xmlns="http://www.w3.org/2000/svg">
<g clip-path="url(#clip0_4_1050)">
<path d="M66.8438 39.6189C68.0608 39.5242 69 38.5071 69 37.2879V31.712C69 30.4906 68.0608 29.4757 66.8438 29.3788L59.4548 28.8018C58.9853 28.766 58.581 28.4713 58.3999 28.0353L55.9699 22.1708C55.7888 21.737 55.8647 21.2401 56.1721 20.8842L60.9899 15.2493C61.7817 14.3206 61.7311 12.9393 60.8657 12.0759L56.9238 8.13405C56.0605 7.27074 54.677 7.21589 53.7505 8.0098L48.1155 12.8277C47.7596 13.133 47.2606 13.2109 46.8289 13.032L40.9624 10.5999C40.5286 10.4209 40.2317 10.0103 40.1938 9.54491L39.6189 2.158C39.5242 0.939182 38.5093 0 37.288 0H31.7121C30.4907 0 29.4758 0.939182 29.3811 2.15841L28.8041 9.54532C28.7683 10.0128 28.4714 10.4213 28.0376 10.6003L22.1711 13.0324C21.7373 13.2113 21.2404 13.1335 20.8823 12.8281L15.2495 8.0102C14.323 7.2163 12.9417 7.27115 12.0762 8.13445L8.13432 12.0763C7.27101 12.9397 7.21832 14.321 8.01006 15.2497L12.8279 20.8846C13.1312 21.2405 13.2112 21.7374 13.0301 22.1712L10.6001 28.0357C10.4232 28.4715 10.0127 28.7664 9.5472 28.8022L2.15625 29.3789C0.939182 29.4758 0 30.4907 0 31.7121V37.2859C0 38.5073 0.939182 39.5242 2.15625 39.6191L9.54734 40.194C10.0127 40.2319 10.4233 40.5287 10.6003 40.9626L13.0302 46.827C13.2113 47.2608 13.1313 47.7599 12.8281 48.1158L8.0102 53.7507C7.21845 54.6772 7.27114 56.0586 8.13445 56.9241L12.0763 60.866C12.9418 61.7293 14.3232 61.782 15.2497 60.9881L20.8825 56.1702C21.2404 55.867 21.7374 55.7869 22.1712 55.968L28.0377 58.398C28.4715 58.5791 28.7684 58.9854 28.8043 59.4551L29.3812 66.842C29.4759 68.0591 30.4909 69.0004 31.7122 69.0004H37.2882C38.5095 69.0004 39.5245 68.0592 39.6192 66.842L40.1941 59.4551C40.232 58.9856 40.5289 58.5791 40.9627 58.398L46.8292 55.968C47.2608 55.7869 47.762 55.867 48.1158 56.1702L53.7507 60.9881C54.6772 61.782 56.0607 61.7293 56.9241 60.866L60.866 56.9241C61.7314 56.0586 61.782 54.6772 60.9902 53.7507L56.1723 48.1158C55.8691 47.7599 55.7891 47.2608 55.9702 46.827L58.4001 40.9626C58.5813 40.5287 58.9856 40.2319 59.4551 40.194L66.8438 39.6189ZM34.5 46.1594C31.3857 46.1594 28.4566 44.9465 26.254 42.746C24.0514 40.5414 22.8385 37.6144 22.8385 34.498C22.8385 31.3837 24.0514 28.4546 26.254 26.2541C28.4566 24.0495 31.3856 22.8386 34.5 22.8386C37.6165 22.8386 40.5434 24.0493 42.746 26.2541C44.9486 28.4546 46.1615 31.3837 46.1615 34.498C46.1615 37.6144 44.9486 40.5414 42.746 42.746C40.5434 44.9465 37.6165 46.1594 34.5 46.1594Z" fill="#E5E1DA"/>
</g>
<defs>
<clipPath id="clip0_4_1050">
<rect width="69" height="69" fill="white"/>
</clipPath>
</defs>
</svg>
