<svg width="87" height="87" viewBox="0 0 87 87" fill="none" xmlns="http://www.w3.org/2000/svg">
<path d="M81.2104 70.0871L76.3772 26.587C76.2306 25.2565 75.5979 24.0271 74.6006 23.1344C73.6032 22.2417 72.3114 21.7488 70.9729 21.75H59.5817C58.9399 17.9491 56.9725 14.4984 54.0287 12.01C51.0848 9.52156 47.3547 8.15625 43.5 8.15625C39.6453 8.15625 35.9152 9.52156 32.9713 12.01C30.0275 14.4984 28.0602 17.9491 27.4183 21.75H16.0271C14.6886 21.7488 13.3967 22.2418 12.3994 23.1345C11.402 24.0271 10.7693 25.2567 10.6228 26.5871L5.78961 70.0871C5.70519 70.8472 5.78204 71.6165 6.01513 72.3448C6.24822 73.0731 6.63231 73.7441 7.14233 74.3139C7.65234 74.8837 8.27681 75.3395 8.97495 75.6516C9.67309 75.9637 10.4292 76.125 11.1939 76.125H75.806C76.5708 76.125 77.3269 75.9637 78.025 75.6516C78.7232 75.3395 79.3476 74.8837 79.8576 74.3139C80.3677 73.7441 80.7517 73.0731 80.9848 72.3448C81.2179 71.6165 81.2948 70.8472 81.2104 70.0871ZM43.5 13.5937C45.9103 13.5968 48.2515 14.3992 50.1571 15.875C52.0626 17.3509 53.425 19.4171 54.0308 21.75H32.9692C33.575 19.4171 34.9373 17.3509 36.8429 15.875C38.7485 14.3992 41.0897 13.5968 43.5 13.5937Z" fill="#E5E1DA"/>
</svg>
